<?xml version="1.0" standalone="no"?>
<!DOCTYPE svg PUBLIC "-//W3C//DTD SVG 20010904//EN"
 "http://www.w3.org/TR/2001/REC-SVG-20010904/DTD/svg10.dtd">
<svg version="1.0" xmlns="http://www.w3.org/2000/svg"
 width="1200.000000pt" height="1200.000000pt" viewBox="0 0 1200.000000 1200.000000"
 preserveAspectRatio="xMidYMid meet">

<g transform="translate(0.000000,1200.000000) scale(0.100000,-0.100000)"
fill="#000000" stroke="none">
<path d="M7553 7375 c-91 -39 -80 -187 17 -216 86 -26 160 25 160 110 0 55
-20 88 -66 107 -41 17 -70 17 -111 -1z"/>
<path d="M4978 7306 l-98 -8 0 -499 0 -499 100 0 100 0 0 243 0 244 38 41 c57
62 132 70 152 16 6 -14 10 -142 10 -285 l0 -259 105 0 105 0 0 283 c0 163 -4
298 -10 319 -14 48 -55 97 -97 114 -43 18 -145 18 -188 0 -19 -8 -50 -26 -68
-40 -19 -15 -37 -26 -40 -26 -4 0 -8 82 -9 183 l-3 182 -97 -9z"/>
<path d="M3240 6766 l0 -466 178 0 c202 0 284 11 362 46 68 31 97 57 121 109
22 48 25 161 5 208 -19 45 -75 92 -137 112 l-52 18 32 13 c91 38 131 97 131
194 0 64 -21 120 -57 152 -10 9 -45 30 -78 45 -59 28 -63 28 -282 31 l-223 4
0 -466z m397 282 c49 -49 29 -155 -33 -178 -14 -6 -54 -10 -90 -10 l-64 0 0
111 0 111 80 -4 c71 -3 83 -6 107 -30z m-1 -354 c43 -20 64 -59 64 -116 0 -82
-46 -116 -166 -120 l-79 -3 -3 128 -3 127 77 0 c50 0 88 -6 110 -16z"/>
<path d="M4271 7025 c-157 -44 -241 -171 -241 -365 0 -175 62 -289 190 -348
46 -22 70 -26 145 -26 111 -1 176 19 239 75 140 123 152 423 22 576 -68 80
-235 121 -355 88z m166 -161 c36 -23 56 -73 61 -156 9 -159 -19 -241 -91 -265
-61 -20 -106 0 -137 62 -21 43 -24 63 -24 155 0 92 3 112 24 155 20 39 33 53
60 62 38 12 73 8 107 -13z"/>
<path d="M5901 7025 c-99 -28 -163 -84 -208 -182 -49 -108 -51 -262 -4 -369
61 -137 225 -214 400 -187 67 10 155 44 196 76 19 14 18 16 -20 71 -21 31 -39
56 -40 56 -2 0 -28 -12 -59 -26 -73 -33 -167 -37 -217 -8 -37 22 -79 86 -79
122 l0 22 231 0 232 0 -5 100 c-4 86 -9 108 -37 164 -37 75 -92 128 -160 151
-68 24 -166 28 -230 10z m158 -138 c32 -16 58 -61 67 -115 l7 -42 -136 0 -136
0 6 33 c20 110 108 167 192 124z"/>
<path d="M6700 7029 c-14 -6 -41 -26 -61 -45 l-36 -36 -7 36 -7 36 -74 0 -75
0 0 -360 0 -360 90 0 90 0 0 264 0 265 26 20 c15 12 34 21 43 21 39 0 41 -15
41 -297 l0 -273 75 0 75 0 0 264 0 265 26 20 c15 12 34 21 43 21 39 0 41 -15
41 -297 l0 -273 91 0 91 0 -4 313 c-3 282 -5 316 -22 350 -45 90 -155 101
-242 25 -34 -30 -35 -30 -49 -12 -8 11 -15 23 -15 27 0 12 -65 37 -92 36 -13
0 -34 -5 -48 -10z"/>
<path d="M8315 7034 c-55 -9 -185 -46 -185 -53 0 -11 42 -131 45 -131 2 0 30
7 62 15 79 21 181 22 221 1 37 -19 52 -43 52 -84 l0 -29 -107 -6 c-172 -9
-263 -50 -308 -140 -79 -159 32 -327 216 -327 56 0 160 36 199 68 l34 29 20
-25 c23 -29 90 -61 126 -62 23 0 28 7 47 66 l22 67 -22 17 c-21 17 -22 27 -27
227 -5 191 -7 211 -27 250 -41 76 -118 112 -253 118 -47 2 -98 1 -115 -1z
m195 -468 c0 -59 -2 -66 -30 -90 -69 -57 -160 -52 -186 10 -34 82 31 143 154
144 l62 0 0 -64z"/>
<path d="M7330 6945 l0 -75 100 0 100 0 0 -210 0 -210 -100 0 -100 0 0 -75 0
-75 295 0 295 0 0 75 0 75 -90 0 -90 0 0 285 0 285 -205 0 -205 0 0 -75z"/>
<path d="M1119 6947 c-39 -26 -69 -79 -69 -122 0 -113 137 -185 231 -122 121
81 65 267 -81 267 -32 0 -58 -7 -81 -23z"/>
<path d="M10719 6947 c-39 -26 -69 -79 -69 -122 0 -113 137 -185 231 -122 121
81 65 267 -81 267 -32 0 -58 -7 -81 -23z"/>
<path d="M1500 6825 l0 -75 635 0 635 0 0 75 0 75 -635 0 -635 0 0 -75z"/>
<path d="M9230 6825 l0 -75 635 0 635 0 0 75 0 75 -635 0 -635 0 0 -75z"/>
<path d="M5620 5335 c0 -113 4 -165 14 -190 15 -35 67 -75 99 -75 16 0 17 -19
17 -255 l0 -255 40 0 40 0 0 254 0 254 28 5 c42 9 80 44 92 85 5 20 10 103 10
185 l0 147 -45 0 -45 0 0 -158 c0 -152 -5 -182 -32 -182 -4 0 -8 77 -8 170 l0
170 -40 0 -40 0 0 -170 c0 -98 -4 -170 -9 -170 -5 0 -17 7 -25 16 -13 13 -16
43 -16 170 l0 154 -40 0 -40 0 0 -155z"/>
<path d="M6130 5026 l0 -466 40 0 40 0 0 158 0 158 86 42 86 43 -4 187 c-3
184 -3 188 -31 234 -34 58 -95 96 -166 105 l-51 6 0 -467z m140 319 c24 -26
25 -32 28 -180 l3 -154 -40 -20 c-22 -12 -43 -21 -46 -21 -3 0 -5 95 -5 210 0
198 1 210 18 201 9 -5 28 -21 42 -36z"/>
</g>
</svg>
